<?xml version="1.0" standalone="no"?>
<!DOCTYPE svg PUBLIC "-//W3C//DTD SVG 20010904//EN"
 "http://www.w3.org/TR/2001/REC-SVG-20010904/DTD/svg10.dtd">
<svg version="1.0" xmlns="http://www.w3.org/2000/svg"
 width="105.000000pt" height="95.000000pt" viewBox="0 0 105.000000 95.000000"
 preserveAspectRatio="xMidYMid meet">

<g transform="translate(0.000000,95.000000) scale(0.100000,-0.100000)"
fill="#000000" stroke="none">
<path d="M589 826 c-3 -3 -35 -10 -73 -16 -88 -14 -145 -42 -211 -102 -122
-111 -154 -291 -79 -440 44 -87 97 -97 218 -40 l58 27 -36 17 -35 17 -13 -27
c-9 -18 -22 -28 -42 -30 l-29 -4 8 49 c4 26 17 81 30 121 13 39 20 74 16 76
-3 2 -23 6 -43 10 -56 10 -46 23 15 19 l52 -4 35 62 c76 135 186 221 281 221
27 0 49 2 49 4 0 2 -15 13 -32 24 -24 15 -51 20 -99 20 -36 0 -68 -2 -70 -4z"/>
<path d="M656 699 c-40 -27 -155 -167 -156 -191 0 -9 68 11 110 32 64 33 120
112 120 170 0 28 -19 25 -74 -11z"/>
<path d="M785 698 c-25 -115 -127 -204 -255 -223 -37 -6 -49 -13 -68 -43 l-23
-35 28 19 c62 41 95 54 114 43 28 -15 23 -35 -21 -83 -22 -24 -40 -46 -40 -49
0 -3 15 -11 34 -17 30 -10 41 -8 83 14 67 33 159 59 189 52 37 -10 57 -47 44
-82 -16 -42 -37 -61 -86 -80 -41 -16 -50 -16 -137 1 l-93 17 -71 -30 c-109
-46 -166 -55 -237 -37 -32 9 -61 14 -63 12 -6 -7 51 -59 77 -70 14 -5 59 -13
100 -17 41 -4 103 -13 138 -21 198 -41 398 104 432 313 17 107 -28 243 -105
318 l-33 32 -7 -34z"/>
<path d="M500 410 c-19 -10 -48 -32 -64 -49 -26 -27 -27 -31 -10 -31 30 1 90
41 123 83 19 23 -2 23 -49 -3z"/>
<path d="M750 315 c-82 -24 -90 -27 -90 -35 0 -8 50 -20 86 -20 29 0 80 42 70
58 -9 14 -9 14 -66 -3z"/>
</g>
</svg>
